# xmcd
#
# Track frame offsets:
# 150
# 13487
# 23522
# 34920
# 46060
# 56872
# 66860
# 77612
# 88505
# 99777
# 111080
# 121912
# 132605
# 142032
# 151605
# 161275
# 172420
# 184467
# 194455
# 204805
# 214820
# 227027
# 235262
# 245905
#
# Disc length: 3435 seconds
#
# Revision: 1
# Processed by: cddbd v1.5.2PL0 Copyright (c) Steve Scherf et al.
# Submitted via: Easy CD Ripper v2.27
#
DISCID=500d6918
DTITLE=Eagles - The legend
DYEAR=1999
DGENRE=Country
TTITLE0=Wedding Bells - George Jones
TTITLE1=I Heard You Crying in Your Sleep - George Jones
TTITLE2=I Just Don't Like this Kind of Living - George Jones
TTITLE3=You Win Again - George Jones
TTITLE4=I Could Never Be Ashamed of You - George Jones
TTITLE5=You're Gonna Change - George Jones
TTITLE6=Lonesome Whistle - George Jones
TTITLE7=A House Without Love - George Jones
TTITLE8=Your Cheating Heart - George Jones
TTITLE9=They'll Never Take Her Love From Me - George Jones
TTITLE10=Mansion on the Hill - George Jones
TTITLE11=Take These Chains from My Heart - George Jones
TTITLE12=Trouble in Mind - George Jones
TTITLE13=You Done Me Wrong - George Jones
TTITLE14=It's a Sin - George Jones
TTITLE15=My Tears are Overdue - George Jones
TTITLE16=Brown to Blue - George Jones
TTITLE17=Lonesome Old Town - George Jones
TTITLE18=Worried Town - George Jones
TTITLE19=I Heard You Crying in Your Sleep - George Jones
TTITLE20=Sometimes You Just Can't Win - George Jones
TTITLE21=A Little Bitty Tear - George Jones
TTITLE22=Take These Chains from My Heart - George Jones
TTITLE23=Lonesome Life - George Jones
EXTD=
EXTT0=
EXTT1=
EXTT2=
EXTT3=
EXTT4=
EXTT5=
EXTT6=
EXTT7=
EXTT8=
EXTT9=
EXTT10=
EXTT11=
EXTT12=
EXTT13=
EXTT14=
EXTT15=
EXTT16=
EXTT17=
EXTT18=
EXTT19=
EXTT20=
EXTT21=
EXTT22=
EXTT23=
PLAYORDER=
